<?xml version="1.0" encoding="UTF-8"?><svg id="Layer_2" xmlns="http://www.w3.org/2000/svg" xmlns:xlink="http://www.w3.org/1999/xlink" viewBox="0 0 1049.04 182.68"><defs><style>.cls-1{fill:none;}.cls-2{clip-path:url(#clippath);}.cls-3{fill:#0054ac;}.cls-4{fill:#65c1ee;}.cls-5{fill:#fff;}.cls-6{fill:#fff100;}.cls-7{fill:red;}.cls-8{fill:#ff92c2;}.cls-9{fill:#f70;}.cls-10{fill:#ae0193;}.cls-11{fill:#18bd2f;}.cls-12{fill:#263746;}.cls-13{fill:#754c29;}</style><clipPath id="clippath"><rect class="cls-1" width="120.99" height="164.24" transform="translate(120.99 164.24) rotate(180)"/></clipPath></defs><g id="Layer_1-2"><g><g><rect class="cls-7" width="164.24" height="27.57"/><rect class="cls-9" y="27.33" width="164.24" height="27.57"/><rect class="cls-6" y="54.67" width="164.24" height="27.57"/><rect class="cls-11" y="82" width="164.24" height="27.57"/><rect class="cls-3" y="109.33" width="164.24" height="27.57"/><rect class="cls-10" y="136.67" width="164.24" height="27.57"/><g class="cls-2"><g><polygon points="102.88 82.14 .02 184.55 -103.1 81.86 -.25 -20.56 102.88 82.14"/><polygon class="cls-13" points="82.29 82.11 0 164.05 -82.51 81.89 -.22 -.05 82.29 82.11"/><polygon class="cls-4" points="63.11 82.08 -.03 144.96 -63.34 81.92 -.2 19.04 63.11 82.08"/><polygon class="cls-8" points="45.27 82.06 -.05 127.19 -45.5 81.94 -.17 36.81 45.27 82.06"/><polygon class="cls-5" points="27.97 82.04 -.07 109.96 -28.19 81.96 -.15 54.04 27.97 82.04"/></g></g></g><g><path class="cls-12" d="M518.32,14.23h13.98V143.93h-13.98V14.23Zm159.07,33.09c-10.49,0-19.04,4.16-26.03,13.05-7.3,9.45-10.49,19.66-10.49,35.53,0,31.21,14.51,50.1,38.62,50.1,10.95,.11,21.5-4.1,29.37-11.72l-5.26-9.45c-5.55,5.81-13.28,9.03-21.32,8.87-8.74,0-16.77-3.39-21.66-11.52-2.97-4.91-4.02-11.72-4.02-20.6v-2.28h54.26v-2.08c-.33-22.48-2.45-31.37-9.95-39.7-6.02-6.65-14.63-10.37-23.6-10.2h.07Zm-20.86,40.83c.69-19.47,7.68-29.29,20.08-29.29,6.33-.18,12.29,2.97,15.71,8.3,2.63,4.54,3.85,10.79,4.03,20.99h-39.82Zm134.96-26.65c1.4,3.48,2.11,7.2,2.1,10.95v71.49h-13.82v-63.73c0-10.02-.69-12.47-3.14-15.68-2.45-2.69-5.98-4.15-9.62-3.98-6.99,0-17.81,6.06-24.11,13.23v70.16h-13.29V71.35c0-13.43-3.3-19.86-3.3-19.86l13.27-3.98c1.98,4.66,3.07,9.65,3.21,14.71,9.13-9.82,18.14-14.6,27.38-14.6,9.25-.09,17.65,5.37,21.32,13.87Zm39.68-11.53h22.47l-4.18,11.15h-18.82v60.68c0,10.4,2.61,14,11.19,14,3.83,0,2.83,0,5.27-1.28l1.93,9.45c-3.57,2.39-7.84,3.5-12.12,3.16-3.94,.08-7.85-.82-11.35-2.63-6.11-3.21-8.4-9.27-8.4-18.73V61.11h-11.35v-11.15h11.35V14.3h14V49.96ZM623.11,14.1h-13.63v31.34c0,6.79,.16,14.6,.16,14.6-5.39-7.65-14.23-12.11-23.58-11.9-6.1-.07-12.04,2-16.77,5.86-11.9,8.87-18,23.62-18,43.66,0,30.06,12.92,47.63,35.46,47.63,10.15,0,16.79-3.19,23.07-10.95,.19,3.29,.84,6.54,1.92,9.65h14c-1.93-5.48-2.63-14.2-2.63-30.44V14.1Zm-13.8,105.85c-1.18,2.64-2.97,4.96-5.22,6.77-5.6,4.34-9.62,6.04-16.77,6.04-8.03,0-13.45-3.21-17.47-10.95-2.81-5.48-3.5-13.61-3.5-24.58,0-13.23,1.39-20.08,5.58-27.21,3.15-6.07,9.43-9.86,16.26-9.84,10.29,0,16.79,3.23,21.15,9.84l-.04,49.93Zm420.86-70.14l-29.89,97.5c-5.95,18.94-12.92,31.39-28.14,35.37l-4.02-10.02c8.5-2.88,12.96-7.08,16.68-17.32-1.41-7.43-2.19-10.66-2.19-10.66-1.04-6.06-5.77-24.4-8.72-33.84l-18.73-58.99,13.49-4.93,17.81,61.07c2.63,8.89,5.24,23.43,5.24,23.43h.37s3.3-12.08,5.48-19.84l17.12-61.81,15.51,.04Zm11.77,76.96c0-3.29-1.83-4.58-5.48-4.58h-5.48v15.6h2.74v-6.75h1.66l3.81,6.72h2.9l-3.94-6.83c2.11-.02,3.8-1.74,3.78-3.85,0-.12,0-.23-.02-.35l.02,.04Zm-8.18,2.1v-4.51h2.45c1.41,0,2.99,.31,2.99,2.14,0,2.1-1.41,2.34-3.03,2.34l-2.41,.04Zm2.26-12.57c-7.6-.43-14.11,5.37-14.54,12.97-.43,7.6,5.37,14.11,12.97,14.54,7.6,.43,14.11-5.37,14.54-12.97,.01-.26,.02-.52,.02-.78,.21-7.4-5.61-13.58-13.01-13.8l.02,.04Zm0,24.84c-5.48,0-9.82-4.65-9.82-11.08s4.38-11.1,9.82-11.1,9.84,4.65,9.84,11.1-4.42,11.04-9.86,11.04l.02,.04Zm-112.06-80.21v60.68c0,10.4,2.63,14,11.17,14,3.85,0,2.85,0,5.29-1.3l1.93,9.45c-3.57,2.39-7.84,3.51-12.12,3.16-3.94,.1-7.84-.79-11.35-2.57-6.11-3.21-8.38-9.25-8.38-18.73V60.93h-11.37v-11.15h11.37V14.1h13.98V49.78h21.9l-4.2,11.15h-18.23Zm-55.48-10.95l14.14-2.35v96.31h-14.14V49.98Z"/><path class="cls-12" d="M261.08,24.74c-6.66-3.98-12.78-6.15-32.98-6.15h-31.25v125.64h23.98v-46.27h13.16c13.14,0,18.25-1.46,23.73-4.16,12.98-6.52,20.48-19.89,20.48-36.5-.05-14.49-6.02-26.1-17.12-32.56Zm-11.97,46.1c-3.23,5.24-6.13,6.5-15.88,6.5h-12.39V39.01h15.18c10.09,0,16.06,7.06,16.06,18.8-.07,5.97-.91,9.6-2.97,13.03Zm36.06-44.66c-.19-8.12,6.23-14.86,14.35-15.06,7.68,0,13.83,6.68,13.83,15,.56,7.78-5.29,14.54-13.07,15.1-7.78,.56-14.54-5.29-15.1-13.07-.05-.68-.05-1.35,0-2.03v.05Zm2.57,27.1l22.87-3.83v94.78h-22.87V53.28Zm167.91,67.27l-12.3-.18c-2.39,0-3.76-.91-3.76-2.17,0-2.54,3.25-4.69,9.13-7.59,1.13,.14,2.27,.2,3.41,.18,18.62,0,32.3-11.59,32.3-27.49,.15-5.51-1.68-10.9-5.15-15.18,1.98,.31,3.98,.5,5.99,.55,6.09,.13,11.95-2.38,16.06-6.88l-9.56-15.37c-4.8,4.87-11.27,7.72-18.1,7.96-3.66-.21-7.28-.88-10.77-1.99-5.12-1.48-10.42-2.26-15.75-2.34-22.38,0-36.88,12.28-36.88,31.26,0,13.74,6.13,22.25,18.78,25.68-14.36,3.96-16.06,9.58-16.06,15.55,0,6.33,2.56,10.48,6.66,12.1,4.11,1.62,10.77,2.7,21.01,2.9l9.73,.18c9.13,.18,16.06,2.72,16.06,10.95-.14,3.89-2.26,7.44-5.62,9.4-3.65,2.35-8.54,3.07-14.35,3.07-10.59,0-16.43-3.98-16.43-11.39-.11-2.03,.24-4.07,1.02-5.95h-21.17c-1.46,2.91-2.16,6.14-2.04,9.4-.02,6.24,2.58,12.2,7.17,16.43,7.85,7.77,20.66,9.95,33.12,9.95,13.65,0,26.83-3.25,34.49-11.94,4.75-5.23,7.27-12.1,7.03-19.16,0-8.32-2.41-14.6-7.52-19.69-6.19-5.89-13.1-8.05-26.5-8.16v-.07Zm-22.38-39.06c0-8.67,4.95-13.74,13.65-13.74s13.85,5.07,13.85,13.74-4.96,13.2-14.02,13.2c-8.03,0-13.49-3.8-13.49-13.2Zm-65.26-10.95c-4.6,0-10.59,3.27-15.88,8.3v65.37h-22.89V77.15c.12-7.35-.92-14.67-3.08-21.7l20.33-6.13c2.02,3.53,3.13,7.51,3.25,11.57,3.21-2.5,6.58-4.79,10.07-6.88,4.85-2.54,10.24-3.9,15.71-3.96,9.75,0,18.25,5.48,21.01,13.38,1.32,4.27,1.9,8.73,1.72,13.2v67.53h-22.56v-60.03c0-10.59-1.7-13.65-7.68-13.65v.07Z"/></g></g></g></svg>