<svg viewBox="0 0 1532 1768" width="15%"  xmlns="http://www.w3.org/2000/svg" xmlns:xlink="http://www.w3.org/1999/xlink" xml:space="preserve" overflow="hidden"><g transform="translate(-82 -215)"><g><g><g><path d="M302 961.125C302 991.501 277.376 1016.12 247 1016.12 216.625 1016.12 192 991.501 192 961.125 192 930.749 216.625 906.125 247 906.125 277.376 906.125 302 930.749 302 961.125Z" fill="#0070C0"/><path d="M357 1139.88 357 1084.88C357 1076.62 352.875 1068.38 346 1062.88 330.875 1050.5 311.625 1042.25 292.375 1036.75 278.625 1032.62 263.5 1029.88 247 1029.88 231.875 1029.88 216.75 1032.62 201.625 1036.75 182.375 1042.25 163.125 1051.88 148 1062.88 141.125 1068.38 137 1076.62 137 1084.88L137 1139.88 357 1139.88Z" fill="#0070C0"/></g></g></g><text font-family="Arial,Arial_MSFontService,sans-serif" font-weight="400" font-size="55" transform="matrix(1 0 0 1 164.56 1206)">User</text><g><g><g><path d="M1450.57 1218.49 1450.6 1007.41 1110.43 1007.41 1110.43 1218.59ZM1122.16 1019.14 1438.87 1019.14 1438.84 1206.76 1122.16 1206.86Z" fill="#0070C0"/><path d="M1092.84 1001.54C1092.85 995.061 1098.09 989.814 1104.57 989.807L1456.46 989.807C1462.93 989.815 1468.18 995.061 1468.19 1001.54L1468.19 1242.06 1479.92 1242.06 1479.92 1001.54C1479.91 988.586 1469.41 978.091 1456.46 978.078L1104.57 978.078C1091.62 978.091 1081.12 988.586 1081.11 1001.54L1081.11 1242.06 1092.84 1242.06Z" fill="#0070C0"/><path d="M1309.84 1259.54 1309.84 1271.27 1251.19 1271.27 1251.19 1259.54 1010.73 1259.54 1010.73 1271.27C1010.75 1287.46 1023.86 1300.58 1040.05 1300.6L1520.97 1300.6C1537.16 1300.58 1550.28 1287.46 1550.3 1271.27L1550.3 1259.54ZM1520.97 1288.87 1040.05 1288.87C1030.34 1288.86 1022.47 1280.99 1022.46 1271.27L1239.46 1271.27C1239.24 1277.54 1244.14 1282.79 1250.41 1283 1250.67 1283.01 1250.93 1283.01 1251.19 1283L1309.84 1283C1316.1 1283.22 1321.35 1278.32 1321.57 1272.06 1321.58 1271.8 1321.58 1271.53 1321.57 1271.27L1538.57 1271.27C1538.56 1280.99 1530.68 1288.86 1520.97 1288.87Z" fill="#0070C0"/><path d="M1280.5 1036.8C1238.39 1036.8 1204.26 1070.94 1204.26 1113.04 1204.26 1155.15 1238.39 1189.28 1280.5 1189.28 1322.61 1189.28 1356.74 1155.15 1356.74 1113.04 1356.69 1070.96 1322.59 1036.85 1280.5 1036.8ZM1344.71 1107.18 1324.08 1107.18C1323.27 1086.16 1314.52 1066.23 1299.59 1051.42 1324.51 1059.19 1342.31 1081.18 1344.71 1107.18ZM1274.64 1055.72 1274.64 1107.18 1248.68 1107.18C1250.17 1085.06 1259.99 1065.77 1274.64 1055.72ZM1274.64 1118.91 1274.64 1170.37C1260.01 1160.3 1250.18 1140.95 1248.68 1118.91ZM1286.36 1170.36 1286.36 1118.91 1312.32 1118.91C1310.82 1140.92 1300.98 1160.28 1286.36 1170.36ZM1286.36 1107.18 1286.36 1055.73C1300.98 1065.8 1310.82 1085.16 1312.32 1107.18ZM1261.3 1051.45C1246.4 1066.26 1237.69 1086.18 1236.92 1107.18L1216.29 1107.18C1218.69 1081.22 1236.44 1059.25 1261.3 1051.45ZM1216.29 1118.91 1236.92 1118.91C1237.72 1139.92 1246.47 1159.84 1261.39 1174.66 1236.48 1166.88 1218.69 1144.89 1216.29 1118.91ZM1299.59 1174.66C1314.52 1159.85 1323.27 1139.92 1324.08 1118.91L1344.71 1118.91C1342.31 1144.9 1324.51 1166.89 1299.59 1174.66Z" fill="#0070C0"/></g></g></g><text font-family="Arial,Arial_MSFontService,sans-serif" font-weight="400" font-size="55" transform="matrix(1 0 0 1 1077.73 1377)">Browser / Device</text><rect x="988.5" y="1593.5" width="623" height="223" stroke="#0070C0" stroke-width="4.58333" stroke-miterlimit="8" fill="none"/><text fill="#0070C0" font-family="Calibri,Calibri_MSFontService,sans-serif" font-weight="400" font-size="83" transform="matrix(1 0 0 1 1194.26 1732)">CTAP2</text><path d="M957.5 259.335C957.5 236.23 976.23 217.5 999.334 217.5L1563.67 217.5C1586.77 217.5 1605.5 236.23 1605.5 259.335L1605.5 426.666C1605.5 449.77 1586.77 468.5 1563.67 468.5L999.334 468.5C976.23 468.5 957.5 449.77 957.5 426.666Z" stroke="#0070C0" stroke-width="4.58333" stroke-miterlimit="8" fill="none" fill-rule="evenodd"/><text fill="#0070C0" font-family="Calibri,Calibri_MSFontService,sans-serif" font-weight="400" font-size="83" transform="matrix(1 0 0 1 1066.89 321)">External App </text><text fill="#0070C0" font-family="Calibri,Calibri_MSFontService,sans-serif" font-weight="400" font-size="83" transform="matrix(1 0 0 1 1104.55 420)">or website</text><g><g><g><path d="M708.875 1746 585.125 1746 585.125 1526 708.875 1526 708.875 1746ZM633.25 1498.5 660.75 1498.5C664.531 1498.5 667.625 1501.59 667.625 1505.37 667.625 1509.16 664.531 1512.25 660.75 1512.25L633.25 1512.25C629.469 1512.25 626.375 1509.16 626.375 1505.37 626.375 1501.59 629.469 1498.5 633.25 1498.5ZM722.625 1484.75 571.375 1484.75C567.594 1484.75 564.5 1487.84 564.5 1491.62L564.5 1780.37C564.5 1784.16 567.594 1787.25 571.375 1787.25L722.625 1787.25C726.406 1787.25 729.5 1784.16 729.5 1780.37L729.5 1491.62C729.5 1487.84 726.406 1484.75 722.625 1484.75Z" fill="#0070C0"/></g></g></g><rect x="982.5" y="657.5" width="623" height="111" stroke="#0070C0" stroke-width="4.58333" stroke-miterlimit="8" fill="none"/><text fill="#0070C0" font-family="Calibri,Calibri_MSFontService,sans-serif" font-weight="400" font-size="83" transform="matrix(1 0 0 1 1112.94 740)">WebAuthn</text><text font-family="Arial,Arial_MSFontService,sans-serif" font-weight="400" font-size="55" transform="matrix(1 0 0 1 537.758 1870)">Roaming </text><text font-family="Arial,Arial_MSFontService,sans-serif" font-weight="400" font-size="55" transform="matrix(1 0 0 1 485.622 1936)">Authenticator</text><path d="M1265.5 509 1300 474.5 1334.5 509 1317.25 509 1317.25 607 1334.5 607 1300 641.5 1265.5 607 1282.75 607 1282.75 509Z" stroke="#0070C0" stroke-width="4.58333" stroke-miterlimit="8" fill="none" fill-rule="evenodd"/><path d="M1265.5 824 1300 789.5 1334.5 824 1317.25 824 1317.25 922 1334.5 922 1300 956.5 1265.5 922 1282.75 922 1282.75 824Z" stroke="#0070C0" stroke-width="4.58333" stroke-miterlimit="8" fill="none" fill-rule="evenodd"/><path d="M1246.5 1443.5 1281.5 1408.5 1316.5 1443.5 1299 1443.5 1299 1540.5 1316.5 1540.5 1281.5 1575.5 1246.5 1540.5 1264 1540.5 1264 1443.5Z" stroke="#0070C0" stroke-width="4.58333" stroke-miterlimit="8" fill="none" fill-rule="evenodd"/><path d="M910 1670.5 944.5 1705 910 1739.5 910 1722.25 812 1722.25 812 1739.5 777.5 1705 812 1670.5 812 1687.75 910 1687.75Z" stroke="#0070C0" stroke-width="4.58333" stroke-miterlimit="8" fill="none" fill-rule="evenodd"/><path d="M1019 1036.5 1060.5 1078 1019 1119.5 1019 1098.75 454 1098.75 454 1119.5 412.5 1078 454 1036.5 454 1057.25 1019 1057.25Z" stroke="#0070C0" stroke-width="4.58333" stroke-miterlimit="8" fill="none" fill-rule="evenodd"/><path d="M592.675 1413.44 577.566 1469.35 521.653 1454.24 539.409 1444.04 393.957 1190.88 376.202 1201.08 391.311 1145.16 447.223 1160.27 429.468 1170.47 574.919 1423.64Z" stroke="#0070C0" stroke-width="4.58333" stroke-miterlimit="8" fill="none" fill-rule="evenodd"/></g></svg>